:SAMPLES-PER-SECOND 30
:FULLY-SPECIFIED
:DEGREES
147
root  -16.6433 32.3075 14.1134 -178.856 55.7679 -174.386
RightUpLeg  1.63842 -25.2093 -12.0846
RightLeg  31.1653 1.43684 0.736008
RightFoot  -10.2357 -0.0590325 -0.124728
RightToes  -42.0436 -0.235011 -0.326373
Spine  -0.229467 5.69694 0.00574492
Spine1  -0.207051 11.6999 0.30165
HEad  -46.552 -10.9841 10.7718
LeftShoulder1  -1.94126e-019 -3.10601e-018 -2.51263e-017
LeftArm  -35.6869 -6.9939 -48.7332
LeftForeArm  58.9761 -78.061 -57.5019
LeftHand  -0.554037 -0.383479 11.2407
RightShoulder  -4.96962e-017 0 -2.36833e-017
RightArm  63.194 17.5307 88.0995
RightForeArm  89.1459 78.3752 44.1681
RightHand  0.789875 10.714 5.24711
LeftUpLeg  -21.4104 -8.58644 21.4114
LeftLeg  24.4626 6.33559 2.39434
LeftFoot  12.4424 -0.163231 1.65886
LeftToes  -33.2871 1.9075e-006 4.29692e-008
148
root  -16.9617 32.751 14.3692 -177.107 52.8243 -174.461
RightUpLeg  1.6827 -25.1308 -9.97621
RightLeg  26.4188 -1.4692 -0.621972
RightFoot  -8.32748 -0.0108778 0.404448
RightToes  -39.2486 -0.212509 -0.310839
Spine  -0.223214 5.35888 -0.0680185
Spine1  -0.228659 11.008 0.179212
HEad  -48.8183 -11.0432 9.65278
LeftShoulder1  -1.94126e-019 -3.10601e-018 -2.51263e-017
LeftArm  -35.9031 -5.05302 -43.7346
LeftForeArm  80.246 -79.7281 -74.8723
LeftHand  -0.41281 -3.22188 5.80903
RightShoulder  -4.96962e-017 0 -2.36833e-017
RightArm  52.7118 7.56609 83.7422
RightForeArm  80.4462 74.652 30.6339
RightHand  0.0061306 10.0978 -0.364471
LeftUpLeg  -23.7313 -2.05996 18.9753
LeftLeg  25.1022 11.6732 4.53469
LeftFoot  12.3999 -0.300116 2.92366
LeftToes  -37.7006 1.9075e-006 4.29692e-008
149
root  -17.3846 33.207 14.4848 -176.317 50.9288 -175.989
RightUpLeg  1.0048 -22.9675 -8.60462
RightLeg  21.9114 -4.3672 -1.4391
RightFoot  -6.97335 0.0109291 0.752207
RightToes  -36.16 -0.188557 -0.292419
Spine  -0.242549 4.60283 -0.386957
Spine1  -0.37265 9.44083 -0.345312
HEad  -50.2307 -8.96803 6.93458
LeftShoulder1  -1.94126e-019 -3.10601e-018 -2.51263e-017
LeftArm  -36.1521 1.44052 -37.6654
LeftForeArm  107.178 -80.0788 -99.3092
LeftHand  -0.352574 -4.82747 4.30378
RightShoulder  -4.96962e-017 0 -2.36833e-017
RightArm  42.4195 1.3334 79.3105
RightForeArm  77.6663 72.6182 26.2595
RightHand  0.014875 10.0498 -0.298156
LeftUpLeg  -26.0283 3.65848 15.2086
LeftLeg  27.9327 10.4648 4.67352
LeftFoot  12.6812 -0.286368 2.73826
LeftToes  -37.753 1.9075e-006 4.29692e-008
150
root  -17.8775 33.5539 14.5324 -174.968 50.1786 -177.038
RightUpLeg  -0.331022 -20.7019 -7.61881
RightLeg  18.3139 -5.25902 -1.37113
RightFoot  -6.65469 0.0146169 0.829615
RightToes  -35.1771 -0.181147 -0.28629
Spine  -0.392047 3.9321 -0.540789
Spine1  -0.736697 8.04157 -0.568262
HEad  -50.4649 -6.84788 3.62079
LeftShoulder1  -1.94126e-019 -3.10601e-018 -2.51263e-017
LeftArm  -36.5187 9.97435 -33.3277
LeftForeArm  122.851 -79.1337 -115.684
LeftHand  -0.53807 -4.48896 6.60818
RightShoulder  -4.96962e-017 0 -2.36833e-017
RightArm  32.0529 -2.32297 74.8422
RightForeArm  76.6655 71.829 24.8826
RightHand  0.106024 9.18778 0.444691
LeftUpLeg  -28.218 5.86842 12.3906
LeftLeg  32.0373 8.44855 4.52878
LeftFoot  11.5056 -0.196266 2.10953
LeftToes  -35.6731 1.9075e-006 4.29692e-008
151
root  -18.4101 33.7129 14.5531 -172.674 49.8517 -177.132
RightUpLeg  -2.48495 -20.2867 -6.82941
RightLeg  16.2062 -3.24072 -0.719457
RightFoot  -6.18423 -0.00145821 0.539225
RightToes  -37.5732 -0.199393 -0.301007
Spine  -0.61973 3.7094 -0.522682
Spine1  -1.20938 7.53177 -0.494581
HEad  -50.5985 -6.00133 0.976251
LeftShoulder1  -1.94126e-019 -3.10601e-018 -2.51263e-017
LeftArm  -38.3601 17.1986 -32.1288
LeftForeArm  124.33 -78.5114 -120.275
LeftHand  -0.658959 -3.33922 9.00697
RightShoulder  -4.96962e-017 0 -2.36833e-017
RightArm  20.3679 -5.31681 70.0492
RightForeArm  73.5574 71.1617 24.134
RightHand  -0.0710323 7.06587 -1.01783
LeftUpLeg  -30.6597 7.47231 10.1973
LeftLeg  36.5998 8.96961 5.75776
LeftFoot  9.67646 -0.153796 1.97836
LeftToes  -33.9221 1.9075e-006 4.29692e-008
152
root  -18.9082 33.6825 14.5058 -170.431 49.3062 -176.848
RightUpLeg  -5.39638 -22.1399 -6.46197
RightLeg  16.6385 -1.56351 -0.360092
RightFoot  -3.30293 -0.0087516 0.259969
RightToes  -39.5477 -0.21488 -0.312553
Spine  -0.595525 3.89221 -0.545736
Spine1  -1.18116 7.88111 -0.520597
HEad  -51.5181 -6.39722 -0.150967
LeftShoulder1  -1.94126e-019 -3.10601e-018 -2.51263e-017
LeftArm  -41.2028 21.7907 -33.1196
LeftForeArm  117.47 -78.6775 -116.953
LeftHand  -0.624497 -1.37386 10.8761
RightShoulder  -4.96962e-017 0 -2.36833e-017
RightArm  7.27467 -8.3993 65.511
RightForeArm  67.1078 69.6635 22.6102
RightHand  -0.387223 4.24388 -4.93967
LeftUpLeg  -32.876 10.0573 7.80528
LeftLeg  41.6975 10.3342 7.976
LeftFoot  6.70202 -0.0907009 1.7105
LeftToes  -32.639 1.9075e-006 4.29692e-008
153
root  -19.2545 33.477 14.3369 -168.708 47.8646 -175.993
RightUpLeg  -7.81216 -24.954 -6.06608
RightLeg  19.0997 0.283103 0.0764181
RightFoot  -2.04099 -0.00736623 0.148013
RightToes  -37.5047 -0.198863 -0.300597
Spine  -0.420272 4.08157 -0.536073
Spine1  -0.854829 8.29479 -0.531235
HEad  -51.6536 -8.14973 0.442252
LeftShoulder1  -1.94126e-019 -3.10601e-018 -2.51263e-017
LeftArm  -42.1855 23.8031 -33.391
LeftForeArm  105.609 -79.5053 -105.274
LeftHand  -0.522513 0.358534 12.1019
RightShoulder  -4.96962e-017 0 -2.36833e-017
RightArm  -7.07155 -11.8689 62.5569
RightForeArm  56.0419 65.5428 18.8685
RightHand  -0.566833 1.73164 -9.40015
LeftUpLeg  -33.9323 12.8297 5.78631
LeftLeg  46.4738 9.14485 8.36195
LeftFoot  3.09161 -0.0183157 0.840261
LeftToes  -29.0469 1.9075e-006 4.29692e-008
154
root  -19.4325 33.125 14.0591 -167.335 45.3452 -174.918
RightUpLeg  -9.73917 -26.8246 -5.49016
RightLeg  22.9519 -0.325952 -0.117809
RightFoot  -3.23222 -0.0105333 0.183139
RightToes  -36.5912 -0.191841 -0.295067
Spine  -0.60083 4.10303 -0.718065
Spine1  -1.25197 8.35605 -0.967069
HEad  -48.4433 -11.1729 2.47376
LeftShoulder1  -1.94126e-019 -3.10601e-018 -2.51263e-017
LeftArm  -40.9097 22.5175 -30.6896
LeftForeArm  84.5019 -79.8964 -80.3503
LeftHand  -0.588418 -0.676776 11.3782
RightShoulder  -4.96962e-017 0 -2.36833e-017
RightArm  -22.5039 -16.1138 61.6865
RightForeArm  43.9824 58.5618 14.4052
RightHand  -0.524399 -0.981387 -13.7569
LeftUpLeg  -33.5333 16.4453 4.07432
LeftLeg  48.6555 6.12699 6.07808
LeftFoot  -1.16296 -0.0018679 -0.0225356
LeftToes  -27.4979 1.9075e-006 4.29692e-008
155
root  -19.5461 32.7442 13.6745 -167.076 41.2838 -174.988
RightUpLeg  -12.2563 -27.8409 -5.95487
RightLeg  29.9802 -2.13018 -1.06202
RightFoot  -4.08644 -0.00782429 0.346105
RightToes  -38.8007 -0.208974 -0.308248
Spine  -0.933829 3.73468 -1.35097
Spine1  -1.95635 7.57645 -2.2374
HEad  -45.3413 -15.7924 6.21086
LeftShoulder1  -1.94126e-019 -3.10601e-018 -2.51263e-017
LeftArm  -40.5555 17.0773 -26.6553
LeftForeArm  57.7404 -77.5598 -52.4016
LeftHand  -0.598052 -1.4006 10.3844
RightShoulder  -4.96962e-017 0 -2.36833e-017
RightArm  -38.8635 -21.7983 62.1093
RightForeArm  36.115 51.7673 11.3722
RightHand  -0.0543548 -5.08896 -15.6523
LeftUpLeg  -31.7785 18.1639 3.02709
LeftLeg  45.3953 2.34079 2.07722
LeftFoot  -9.38442 -0.0438756 -0.373042
LeftToes  -20.39 1.9075e-006 4.29692e-008
156
root  -19.6902 32.4021 13.3506 -168.28 35.3586 -175.645
RightUpLeg  -16.7166 -27.077 -7.63741
RightLeg  43.6515 -3.52338 -2.97945
RightFoot  1.47834 0.00598909 0.0610624
RightToes  -54.3813 -0.342307 -0.381168
Spine  -0.631185 2.85896 -2.25733
Spine1  -1.36146 5.77329 -3.93906
HEad  -44.628 -21.8278 10.8305
LeftShoulder1  -1.94126e-019 -3.10601e-018 -2.51263e-017
LeftArm  -42.7068 7.49901 -23.0803
LeftForeArm  46.5951 -75.4964 -42.8765
LeftHand  -0.624029 -0.5887 12.2283
RightShoulder  -4.96962e-017 0 -2.36833e-017
RightArm  -51.4627 -28.8053 62.6384
RightForeArm  32.1667 45.8939 9.26547
RightHand  0.456451 -8.67804 -16.7724
LeftUpLeg  -33.1844 15.9399 2.29217
LeftLeg  47.7274 0.269684 0.252367
LeftFoot  -10.7119 -0.00815386 0.0745326
LeftToes  -17.3132 1.9075e-006 4.29692e-008
157
root  -19.8297 32.107 13.18 -170.041 29.1127 -175.388
RightUpLeg  -22.9719 -23.7653 -9.48187
RightLeg  59.9134 -1.54802 -2.40359
RightFoot  16.7876 0.187529 -0.718333
RightToes  -67.1295 -0.462807 -0.412355
Spine  0.561287 1.60155 -2.85051
Spine1  1.06245 3.20342 -4.88584
HEad  -45.1467 -26.1511 13.8073
LeftShoulder1  -1.94126e-019 -3.10601e-018 -2.51263e-017
LeftArm  -47.0381 -4.11762 -20.6509
LeftForeArm  48.9693 -75.979 -44.4962
LeftHand  -0.716352 -0.465219 14.2976
RightShoulder  -4.96962e-017 0 -2.36833e-017
RightArm  -56.6304 -35.0316 62.2875
RightForeArm  28.5245 39.7773 7.50116
RightHand  0.559307 -9.31228 -17.1004
LeftUpLeg  -34.9931 12.0562 2.70775
LeftLeg  52.3354 -0.576201 -0.664648
LeftFoot  -10.2318 0.0132117 0.309073
LeftToes  -13.088 1.9075e-006 4.29692e-008
158
root  -19.9268 31.82 13.1638 -171.374 25.7576 -173.937
RightUpLeg  -30.373 -19.5825 -10.9525
RightLeg  72.4336 1.64638 4.01985
RightFoot  28.0709 -0.370803 1.99837
RightToes  -41.1582 -0.227801 -0.321571
Spine  1.89395 0.525825 -3.11248
Spine1  3.73645 0.887094 -5.00177
HEad  -43.6443 -27.5106 13.5844
LeftShoulder1  -1.94126e-019 -3.10601e-018 -2.51263e-017
LeftArm  -51.0386 -16.698 -17.9676
LeftForeArm  52.3949 -76.4087 -45.621
LeftHand  -0.805665 -1.10162 14.532
RightShoulder  -4.96962e-017 0 -2.36833e-017
RightArm  -57.6785 -39.2807 61.0941
RightForeArm  29.1554 34.8698 6.11118
RightHand  0.105242 -6.55786 -12.558
LeftUpLeg  -34.5929 11.8502 3.78343
LeftLeg  53.9787 -1.49634 -1.81179
LeftFoot  -12.6937 0.0568087 0.672231
LeftToes  -6.03125 1.9075e-006 4.29692e-008
159
root  -19.9588 31.6134 13.242 -171.549 22.9374 -171.221
RightUpLeg  -36.9951 -17.4822 -11.4282
RightLeg  76.4706 1.45856 4.41675
RightFoot  23.4326 -0.256662 1.75176
RightToes  -40.5535 -0.222919 -0.318227
Spine  2.99787 -0.712533 -2.8792
Spine1  5.9213 -1.75466 -4.29878
HEad  -40.5763 -27.1204 11.9669
LeftShoulder1  -1.94126e-019 -3.10601e-018 -2.51263e-017
LeftArm  -53.0746 -29.5904 -15.9235
LeftForeArm  54.6772 -76.4383 -44.8249
LeftHand  -0.884768 -1.73345 14.5688
RightShoulder  -4.96962e-017 0 -2.36833e-017
RightArm  -58.0583 -42.4253 59.8645
RightForeArm  35.2823 31.7938 5.01597
RightHand  -0.282467 -1.93964 -9.28936
LeftUpLeg  -34.6427 10.4977 6.40923
LeftLeg  55.3045 -1.96991 -2.4963
LeftFoot  -14.2794 0.0955874 0.924591
LeftToes  -6.18049 1.9075e-006 4.29692e-008
160
root  -20.0426 31.7363 13.4686 -170.964 20.7502 -168.78
RightUpLeg  -43.2541 -16.4876 -11.7313
RightLeg  70.8498 -0.109895 -0.445908
RightFoot  22.6595 0.164551 -0.278503
RightToes  -37.2084 -0.196576 -0.298816
Spine  4.15307 -2.04196 -2.47575
Spine1  8.15543 -4.5822 -3.33422
HEad  -40.3468 -25.1867 11.1927
LeftShoulder1  -1.94126e-019 -3.10601e-018 -2.51263e-017
LeftArm  -53.2342 -40.9204 -15.7669
LeftForeArm  53.4768 -75.2155 -38.9729
LeftHand  -1.08432 -3.16879 14.899
RightShoulder  -4.96962e-017 0 -2.36833e-017
RightArm  -59.8578 -43.8168 59.5018
RightForeArm  37.4502 30.9497 4.71744
RightHand  -0.362921 -0.568741 -8.72675
LeftUpLeg  -35.8915 9.0578 8.63382
LeftLeg  56.1104 -1.89313 -2.47009
LeftFoot  -13.5253 0.0803339 0.838942
LeftToes  -2.64423 1.9075e-006 4.29692e-008
161
root  -20.2042 32.2332 13.6776 -169.676 20.1113 -166.458
RightUpLeg  -46.7358 -14.4946 -11.8315
RightLeg  55.113 -0.537178 -0.740795
RightFoot  20.2677 0.165071 -0.378735
RightToes  -32.498 -0.161495 -0.268947
Spine  4.93465 -2.99196 -2.05341
Spine1  9.66186 -6.57266 -2.52555
HEad  -40.0448 -22.8747 10.6971
LeftShoulder1  -1.94126e-019 -3.10601e-018 -2.51263e-017
LeftArm  -49.6332 -49.849 -18.4647
LeftForeArm  50.3011 -71.8617 -29.3243
LeftHand  -1.33059 -3.7874 17.0034
RightShoulder  -4.96962e-017 0 -2.36833e-017
RightArm  -62.8125 -43.6586 59.6314
RightForeArm  37.2714 29.3161 4.3602
RightHand  -0.305292 -1.85489 -9.83376
LeftUpLeg  -35.4864 8.90036 10.5106
LeftLeg  53.2054 -1.87826 -2.20968
LeftFoot  -12.2607 0.0580749 0.7022
LeftToes  -0.413778 1.9075e-006 4.29692e-008
